<?xml version="1.0" encoding="UTF-8"?>
<svg version="1.1" xmlns="http://www.w3.org/2000/svg" width="344" height="215">
<path d="M0 0 C0.96243622 0.00091644 1.92487244 0.00183289 2.91647339 0.0027771 C4.94550526 0.00880603 6.97452853 0.02453067 9.00341797 0.04931641 C12.11328805 0.08589164 15.22196824 0.09033515 18.33203125 0.08984375 C20.30469782 0.09967275 22.27735631 0.11132881 24.25 0.125 C25.18127716 0.12722565 26.11255432 0.12945129 27.072052 0.13174438 C27.93660004 0.14450409 28.80114807 0.15726379 29.69189453 0.17041016 C30.83176315 0.18184555 30.83176315 0.18184555 31.99465942 0.19351196 C33.9921875 0.4609375 33.9921875 0.4609375 36.9921875 2.4609375 C37.2589491 5.22722665 37.34022939 7.76713381 37.28515625 10.53125 C37.28091141 11.32747772 37.27666656 12.12370544 37.27229309 12.94406128 C37.25547584 15.49169479 37.21781929 18.03854239 37.1796875 20.5859375 C37.16464455 22.31118651 37.15095546 24.03644789 37.13867188 25.76171875 C37.10556251 29.99509532 37.05376035 34.22788309 36.9921875 38.4609375 C37.88421875 38.42613281 38.77625 38.39132813 39.6953125 38.35546875 C40.86578125 38.32839844 42.03625 38.30132812 43.2421875 38.2734375 C44.98242188 38.22123047 44.98242188 38.22123047 46.7578125 38.16796875 C50.36869822 38.49504173 51.4173306 38.99959933 53.9921875 41.4609375 C55.43014886 45.16720398 55.51961242 48.54024311 54.9921875 52.4609375 C50.98633606 61.12611148 42.6593615 69.29091308 33.9921875 73.4609375 C23.21648374 76.98231661 11.00800679 75.72836136 -0.1295166 75.13604736 C-3.41772172 74.98434098 -6.70451397 74.92912879 -9.99559116 74.87751865 C-13.93942711 74.81367011 -17.88166878 74.70780567 -21.82421875 74.58984375 C-22.5679178 74.56868563 -23.31161686 74.5475275 -24.07785225 74.52572823 C-26.17677292 74.45581934 -28.27218002 74.35744035 -30.36938477 74.24829102 C-31.55846939 74.19383316 -32.74755402 74.13937531 -33.97267151 74.08326721 C-37.55103055 73.34955528 -38.80738546 72.32953869 -41.0078125 69.4609375 C-41.3984375 67.1015625 -41.3984375 67.1015625 -41.2578125 64.7109375 C-41.22171875 63.91171875 -41.185625 63.1125 -41.1484375 62.2890625 C-41.10203125 61.68578125 -41.055625 61.0825 -41.0078125 60.4609375 C-40.3478125 60.4609375 -39.6878125 60.4609375 -39.0078125 60.4609375 C-38.81316406 59.90148437 -38.61851562 59.34203125 -38.41796875 58.765625 C-37.0078125 56.4609375 -37.0078125 56.4609375 -34.00390625 54.28125 C-28.62868458 50.36324378 -24.62216476 46.78087461 -23.3671875 39.99902344 C-22.95629731 34.61555098 -22.89181547 29.30497484 -23.05444336 23.91064453 C-23.08932861 22.63817871 -23.12421387 21.36571289 -23.16015625 20.0546875 C-23.22195068 18.90677734 -23.28374512 17.75886719 -23.34741211 16.57617188 C-22.92865723 12.73482589 -21.72846992 11.14611491 -19.0078125 8.4609375 C-18.3478125 8.4609375 -17.6878125 8.4609375 -17.0078125 8.4609375 C-16.6675 7.5946875 -16.6675 7.5946875 -16.3203125 6.7109375 C-12.31757852 -0.15089217 -7.20492255 -0.11166844 0 0 Z M-10.1171875 8.796875 C-11.63306451 10.58683772 -11.63306451 10.58683772 -13.0078125 13.4609375 C-4.10937643 14.46965972 -4.10937643 14.46965972 4.1015625 12.125 C5.61743951 10.33503728 5.61743951 10.33503728 6.9921875 7.4609375 C-1.90624857 6.45221528 -1.90624857 6.45221528 -10.1171875 8.796875 Z M9.8828125 8.796875 C8.36693549 10.58683772 8.36693549 10.58683772 6.9921875 13.4609375 C15.89062357 14.46965972 15.89062357 14.46965972 24.1015625 12.125 C25.61743951 10.33503728 25.61743951 10.33503728 26.9921875 7.4609375 C18.09375143 6.45221528 18.09375143 6.45221528 9.8828125 8.796875 Z M26.96630859 12.94580078 C24.04760325 15.92862714 23.30964589 18.2082534 23.31240845 22.47702026 C23.34337616 23.21163483 23.37434387 23.94624939 23.40625 24.703125 C23.41898453 25.85568283 23.41898453 25.85568283 23.43197632 27.03152466 C23.46536611 29.46780105 23.54060388 31.90067485 23.6171875 34.3359375 C23.64730639 35.9947436 23.67467884 37.65360199 23.69921875 39.3125 C23.76510812 43.36327528 23.8685173 47.41153111 23.9921875 51.4609375 C27.43242554 49.59570158 28.9044013 48.68722463 30.9921875 45.4609375 C31.90554456 39.48975954 31.65056942 33.60630927 31.4296875 27.5859375 C31.39454916 25.92714875 31.36261454 24.26828884 31.33398438 22.609375 C31.25710457 18.55813222 31.13646846 14.51031738 30.9921875 10.4609375 C29.46841994 10.35516488 29.46841994 10.35516488 26.96630859 12.94580078 Z M-16.0078125 17.4609375 C-16.0078125 29.6709375 -16.0078125 41.8809375 -16.0078125 54.4609375 C-4.1278125 54.4609375 7.7521875 54.4609375 19.9921875 54.4609375 C19.9921875 42.2509375 19.9921875 30.0409375 19.9921875 17.4609375 C8.1121875 17.4609375 -3.7678125 17.4609375 -16.0078125 17.4609375 Z M27.9375 53.078125 C25.906744 55.56559721 24.33470059 57.29579893 21.03694153 57.70144653 C20.29747787 57.69700531 19.55801422 57.69256409 18.79614258 57.68798828 C17.95549759 57.68783722 17.1148526 57.68768616 16.24873352 57.68753052 C15.34551865 57.67720795 14.44230377 57.66688538 13.51171875 57.65625 C12.11973518 57.65200516 12.11973518 57.65200516 10.69963074 57.64767456 C7.73451871 57.63647586 4.76970829 57.61137185 1.8046875 57.5859375 C-0.20507376 57.5759073 -2.21483976 57.56678152 -4.22460938 57.55859375 C-9.15246003 57.53653754 -14.08008512 57.50200979 -19.0078125 57.4609375 C-19.1315625 56.6771875 -19.2553125 55.8934375 -19.3828125 55.0859375 C-19.79899243 52.32035928 -19.79899243 52.32035928 -22.0078125 50.4609375 C-23.34412486 51.7704043 -24.67679175 53.08359235 -26.0078125 54.3984375 C-26.7503125 55.12933594 -27.4928125 55.86023438 -28.2578125 56.61328125 C-30.12242242 58.15779903 -30.12242242 58.15779903 -30.0078125 59.4609375 C-22.27993702 59.76431621 -14.55349474 59.99418731 -6.82113361 60.13449574 C-3.2287723 60.20190269 0.35947215 60.29301167 3.94946289 60.44165039 C22.05217565 61.9473345 22.05217565 61.9473345 37.77827454 54.80119324 C41.94094667 50.61390537 41.94094667 50.61390537 43.9921875 45.4609375 C35.62760217 44.13322554 33.09085548 46.59487133 27.9375 53.078125 Z M45.9921875 49.4609375 C45.0021875 50.9459375 45.0021875 50.9459375 43.9921875 52.4609375 C44.9821875 52.1309375 45.9721875 51.8009375 46.9921875 51.4609375 C46.6621875 50.8009375 46.3321875 50.1409375 45.9921875 49.4609375 Z M41.9921875 53.4609375 C38.0321875 56.9259375 38.0321875 56.9259375 33.9921875 60.4609375 C34.3221875 61.1209375 34.6521875 61.7809375 34.9921875 62.4609375 C37.0321594 61.09770007 37.0321594 61.09770007 38.9921875 59.4609375 C38.9921875 58.8009375 38.9921875 58.1409375 38.9921875 57.4609375 C40.3121875 56.8009375 41.6321875 56.1409375 42.9921875 55.4609375 C42.6621875 54.8009375 42.3321875 54.1409375 41.9921875 53.4609375 Z M-33.0078125 63.4609375 C-33.0078125 64.4509375 -33.0078125 65.4409375 -33.0078125 66.4609375 C-31.6878125 66.4609375 -30.3678125 66.4609375 -29.0078125 66.4609375 C-29.0078125 65.4709375 -29.0078125 64.4809375 -29.0078125 63.4609375 C-30.3278125 63.4609375 -31.6478125 63.4609375 -33.0078125 63.4609375 Z M-22.0078125 67.4609375 C-17.3878125 67.1309375 -12.7678125 66.8009375 -8.0078125 66.4609375 C-8.0078125 65.4709375 -8.0078125 64.4809375 -8.0078125 63.4609375 C-9.77730345 63.35278525 -11.54868737 63.27527667 -13.3203125 63.2109375 C-14.79951172 63.14132813 -14.79951172 63.14132813 -16.30859375 63.0703125 C-19.55982045 63.21664731 -19.55982045 63.21664731 -22.0078125 67.4609375 Z M-4.0078125 63.4609375 C-4.0078125 64.4509375 -4.0078125 65.4409375 -4.0078125 66.4609375 C-2.6878125 66.4609375 -1.3678125 66.4609375 -0.0078125 66.4609375 C-0.0078125 65.4709375 -0.0078125 64.4809375 -0.0078125 63.4609375 C-1.3278125 63.4609375 -2.6478125 63.4609375 -4.0078125 63.4609375 Z M9.9921875 63.4609375 C9.0021875 64.9459375 9.0021875 64.9459375 7.9921875 66.4609375 C12.6121875 66.4609375 17.2321875 66.4609375 21.9921875 66.4609375 C21.9921875 65.4709375 21.9921875 64.4809375 21.9921875 63.4609375 C20.03452469 63.38011656 18.07592022 63.32182972 16.1171875 63.2734375 C15.02664062 63.23863281 13.93609375 63.20382813 12.8125 63.16796875 C11.41644531 63.31298828 11.41644531 63.31298828 9.9921875 63.4609375 Z M25.9921875 63.4609375 C25.9921875 64.4509375 25.9921875 65.4409375 25.9921875 66.4609375 C26.9821875 66.4609375 27.9721875 66.4609375 28.9921875 66.4609375 C28.9921875 65.4709375 28.9921875 64.4809375 28.9921875 63.4609375 C28.0021875 63.4609375 27.0121875 63.4609375 25.9921875 63.4609375 Z " fill="#136796" transform="translate(171.0078125,52.5390625)"/>
<path d="M0 0 C1.63001953 0.01353516 1.63001953 0.01353516 3.29296875 0.02734375 C4.12441406 0.03894531 4.95585938 0.05054688 5.8125 0.0625 C6.10898438 0.68640625 6.40546875 1.3103125 6.7109375 1.953125 C7.83232926 4.10047092 9.03155418 5.44345835 10.8125 7.0625 C10.4825 8.0525 10.1525 9.0425 9.8125 10.0625 C7.5625 10.8125 7.5625 10.8125 4.8125 11.0625 C4.19375 10.423125 3.575 9.78375 2.9375 9.125 C0.85547996 6.65906753 0.85547996 6.65906753 -2.9375 6.8125 C-4.54625 6.93625 -4.54625 6.93625 -6.1875 7.0625 C-6.5175 8.3825 -6.8475 9.7025 -7.1875 11.0625 C-2.37540099 13.35295014 -2.37540099 13.35295014 2.8125 14.0625 C2.8125 14.7225 2.8125 15.3825 2.8125 16.0625 C3.575625 16.31 4.33875 16.5575 5.125 16.8125 C8.22066247 18.25234301 9.35020361 18.97542983 10.8125 22.0625 C10.8125 26.76611293 10.7838261 28.94833183 7.6875 32.5 C2.58764254 35.27166167 -1.44385076 35.49812364 -6.9375 33.875 C-10.38221699 32.59570136 -12.52423871 31.49990667 -14.1875 28.0625 C-14.1875 27.4025 -14.1875 26.7425 -14.1875 26.0625 C-14.8475 25.7325 -15.5075 25.4025 -16.1875 25.0625 C-13.8775 24.4025 -11.5675 23.7425 -9.1875 23.0625 C-8.5275 24.7125 -7.8675 26.3625 -7.1875 28.0625 C-6.1975 27.7325 -5.2075 27.4025 -4.1875 27.0625 C-4.1875 27.7225 -4.1875 28.3825 -4.1875 29.0625 C-0.2275 28.5675 -0.2275 28.5675 3.8125 28.0625 C3.8125 26.0825 3.8125 24.1025 3.8125 22.0625 C3.17183594 21.89234375 2.53117187 21.7221875 1.87109375 21.546875 C-8.71998702 18.5794783 -8.71998702 18.5794783 -13.1875 15.0625 C-14.43458612 12.30236153 -14.69132272 10.04535952 -14.1875 7.0625 C-10.86016302 0.82374317 -6.65329 -0.07154075 0 0 Z " fill="#126493" transform="translate(77.1875,139.9375)"/>
<path d="M0 0 C2.3125 0.375 2.3125 0.375 5 2 C6.85823702 6.18829203 8 10.41525461 8 15 C8.66 15 9.32 15 10 15 C10.33 12.03 10.66 9.06 11 6 C11.66 6 12.32 6 13 6 C13.33 4.02 13.66 2.04 14 0 C16.8515625 0.6171875 16.8515625 0.6171875 20 2 C22.00501648 5.87064679 22.82947283 9.76809408 24 14 C25.65 9.38 27.3 4.76 29 0 C30.98 0.66 32.96 1.32 35 2 C33.05797655 10.02071473 30.33160505 17.45450713 27 25 C25.35 25 23.7 25 22 25 C21.35004703 23.58521865 20.70521278 22.16808513 20.0625 20.75 C19.70285156 19.96109375 19.34320313 19.1721875 18.97265625 18.359375 C18 16 18 16 17 12 C15.02 16.29 13.04 20.58 11 25 C9.35 25 7.7 25 6 25 C3.18056846 17.38153605 0.5324241 9.71850538 -2 2 C-1.34 1.34 -0.68 0.68 0 0 Z " fill="#146391" transform="translate(259,149)"/>
<path d="M0 0 C1.98 0 3.96 0 6 0 C6.33 6.6 6.66 13.2 7 20 C7.33 19.34 7.66 18.68 8 18 C8.66 18 9.32 18 10 18 C10.28875 17.38125 10.5775 16.7625 10.875 16.125 C12 14 12 14 14 12 C17.125 11.875 17.125 11.875 20 12 C20.33 12.99 20.66 13.98 21 15 C17.04 18.465 17.04 18.465 13 22 C14.33442606 26.403606 16.69297007 29.14241507 19.7578125 32.44921875 C21 34 21 34 21 36 C17.75 36.375 17.75 36.375 14 36 C11.75 33.1875 11.75 33.1875 10 30 C9.01 29.01 8.02 28.02 7 27 C6.67 29.97 6.34 32.94 6 36 C4.02 36 2.04 36 0 36 C0 24.12 0 12.24 0 0 Z " fill="#19658E" transform="translate(161,138)"/>
<path d="M0 0 C6.46917596 0.65318098 10.04344352 1.52662244 14.51171875 6.34765625 C16.73226637 10.78875149 16.04334323 16.68189954 14.57421875 21.28515625 C11.39270359 24.46667141 7.91690716 25.6366691 3.51171875 26.34765625 C-0.91887869 25.76659429 -2.78398697 25.08901865 -5.86328125 21.84765625 C-8.58542678 17.65974005 -9.0322686 14.30080421 -8.48828125 9.34765625 C-7.17578125 6.59765625 -7.17578125 6.59765625 -5.48828125 4.34765625 C-5.06804687 3.64253906 -4.6478125 2.93742188 -4.21484375 2.2109375 C-2.48828125 0.34765625 -2.48828125 0.34765625 0 0 Z M-1.30078125 7.91015625 C-2.9272799 11.24875875 -2.88823416 13.68142121 -2.48828125 17.34765625 C-1.57161458 19.43098958 -1.57161458 19.43098958 0.51171875 20.34765625 C4.01171875 21.01432292 4.01171875 21.01432292 7.51171875 20.34765625 C10.1284299 17.56740065 10.5253463 16.02903382 10.44921875 12.22265625 C9.72308358 9.30970418 9.72308358 9.30970418 7.76171875 7.47265625 C4.25127945 5.7174366 1.78871149 5.24680044 -1.30078125 7.91015625 Z " fill="#0F6397" transform="translate(115.48828125,148.65234375)"/>
<path d="M0 0 C3.49996383 2.04164557 5.80555258 4.09089936 7 8 C7.30292753 12.77110854 7.52707177 16.78821372 5 21 C1.24814029 24.40012286 -2.69119774 24.56034842 -7.5546875 24.4296875 C-11.55175316 23.72732772 -13.26833621 21.94179178 -16 19 C-17.86233425 15.27533151 -17.57130829 11.05504687 -17 7 C-13.12152077 -0.25044065 -7.56325854 -0.86947697 0 0 Z M-9.8125 6 C-11.71233631 9.19972431 -11.54304262 12.37971584 -11 16 C-10.03882095 18.12870693 -10.03882095 18.12870693 -8 19 C-4.88188517 19.38976435 -2.88980433 19.50422245 -0.125 17.9375 C1.66830867 14.84902396 1.42841969 12.48856031 1 9 C-0.54285631 6.45668762 -0.54285631 6.45668762 -3 5 C-5.84441042 4.51436895 -7.28755792 4.60692851 -9.8125 6 Z " fill="#136390" transform="translate(249,150)"/>
<path d="M0 0 C6.27 0 12.54 0 19 0 C19 1.65 19 3.3 19 5 C14.71 5 10.42 5 6 5 C6.33 7.64 6.66 10.28 7 13 C7.886875 12.773125 8.77375 12.54625 9.6875 12.3125 C13.57790624 11.94548054 14.91440696 12.73118159 18 15 C17.67 16.32 17.34 17.64 17 19 C13.37 19 9.74 19 6 19 C6.08378906 19.92683594 6.16757813 20.85367188 6.25390625 21.80859375 C6.35574219 23.00613281 6.45757812 24.20367187 6.5625 25.4375 C6.66691406 26.63246094 6.77132812 27.82742187 6.87890625 29.05859375 C6.91886719 30.02925781 6.95882812 30.99992187 7 32 C6.505 32.495 6.505 32.495 6 33 C4.02 33 2.04 33 0 33 C0 22.11 0 11.22 0 0 Z " fill="#126695" transform="translate(198,141)"/>
<path d="M0 0 C3.34169044 1.9907943 4.70510664 3.00189939 5.8125 6.75 C5.874375 7.4925 5.93625 8.235 6 9 C3.125 9.1875 3.125 9.1875 0 9 C-0.66 8.01 -1.32 7.02 -2 6 C-5.08365871 5.7497843 -5.08365871 5.7497843 -8 6 C-8.33 6.99 -8.66 7.98 -9 9 C-9.66 9 -10.32 9 -11 9 C-10.67039784 14.01535052 -10.67039784 14.01535052 -8 18 C-5.04211431 18.4167552 -5.04211431 18.4167552 -2 18 C-1.484375 17.484375 -0.96875 16.96875 -0.4375 16.4375 C0.036875 15.963125 0.51125 15.48875 1 15 C3.6875 15.3125 3.6875 15.3125 6 16 C4.73461332 19.90160892 3.65525211 22.02418805 0 24 C-3.99945902 25.03689678 -6.2703111 25.25753726 -10.1875 23.875 C-13.35895089 21.76069941 -15.11659958 20.33216997 -17 17 C-17.68785939 12.74918356 -17.47589243 9.18973106 -15.875 5.1875 C-11.12537777 -0.35372593 -6.92713487 -2.22352477 0 0 Z " fill="#1A628A" transform="translate(151,150)"/>
<path d="M0 0 C2 3 2 3 1.9080658 4.83259583 C-0.36970313 10.2692568 -4.98128636 14.94798183 -10 18 C-15.56458033 19.4672883 -20.81979619 19.34376272 -26.53515625 19.14453125 C-28.10644271 19.12905443 -29.67778087 19.11820578 -31.24913025 19.11174011 C-35.35190263 19.08133235 -39.45037634 18.98325493 -43.55163574 18.87188721 C-46.91226555 18.79240126 -50.27252378 18.76217056 -53.63391972 18.73419666 C-57.64291973 18.69988106 -61.65150027 18.64414144 -65.66015625 18.58203125 C-66.42433428 18.57069468 -67.18851231 18.5593581 -67.97584724 18.54767799 C-70.12766235 18.51051889 -72.27856779 18.45884689 -74.42993164 18.40161133 C-75.65361954 18.3728743 -76.87730743 18.34413727 -78.13807678 18.31452942 C-81 18 -81 18 -83 16 C-72.44 16 -61.88 16 -51 16 C-52.32 15.01 -53.64 14.02 -55 13 C-53.68 13 -52.36 13 -51 13 C-51 10.69 -51 8.38 -51 6 C-49.35 5.67 -47.7 5.34 -46 5 C-46.99 5.33 -47.98 5.66 -49 6 C-49 7.65 -49 9.3 -49 11 C-47.35 11 -45.7 11 -44 11 C-44 9.68 -44 8.36 -44 7 C-43.401875 7.165 -42.80375 7.33 -42.1875 7.5 C-39.39001729 8.13942462 -37.59968785 8.29984393 -35 7 C-32.62597499 6.92883618 -30.24999323 6.91590915 -27.875 6.9375 C-26.59367187 6.94652344 -25.31234375 6.95554687 -23.9921875 6.96484375 C-22.51105469 6.98224609 -22.51105469 6.98224609 -21 7 C-21 8.98 -21 10.96 -21 13 C-26.94 13 -32.88 13 -39 13 C-39 12.34 -39 11.68 -39 11 C-39.66 11 -40.32 11 -41 11 C-41 11.66 -41 12.32 -41 13 C-42.5 14.625 -42.5 14.625 -44 16 C-39.64015539 16.12363227 -35.28123945 16.21434908 -30.92016602 16.2746582 C-29.43691232 16.2997981 -27.95378247 16.33391592 -26.47094727 16.37719727 C-24.33839405 16.43788258 -22.20747795 16.46621116 -20.07421875 16.48828125 C-18.79119873 16.51446533 -17.50817871 16.54064941 -16.1862793 16.56762695 C-12.80500524 16.33466397 -12.80500524 16.33466397 -11.05786133 13.46948242 C-10.70876709 12.65455322 -10.35967285 11.83962402 -10 11 C-9.505 11.99 -9.505 11.99 -9 13 C-8.34 13 -7.68 13 -7 13 C-7 11.68 -7 10.36 -7 9 C-7.99 8.505 -7.99 8.505 -9 8 C-9 7.34 -9 6.68 -9 6 C-3.80769231 1.26923077 -3.80769231 1.26923077 0 0 Z M-34 8 C-34.99 9.485 -34.99 9.485 -36 11 C-31.38 11 -26.76 11 -22 11 C-22 10.01 -22 9.02 -22 8 C-23.95766281 7.91917906 -25.91626728 7.86089222 -27.875 7.8125 C-28.96554688 7.77769531 -30.05609375 7.74289063 -31.1796875 7.70703125 C-32.57574219 7.85205078 -32.57574219 7.85205078 -34 8 Z " fill="#146492" transform="translate(215,108)"/>
<path d="M0 0 C2.125 0.375 2.125 0.375 4 1 C4 2.98 4 4.96 4 7 C6.475 7.99 6.475 7.99 9 9 C9 10.65 9 12.3 9 14 C7.35 14 5.7 14 4 14 C4.33 18.29 4.66 22.58 5 27 C6.65 27.33 8.3 27.66 10 28 C9.67 29.65 9.34 31.3 9 33 C2.7019774 33.48446328 2.7019774 33.48446328 -0.21875 31.46875 C-2.63638004 28.11799959 -2.44466269 25.21063705 -2.25 21.25 C-2.23195313 20.55261719 -2.21390625 19.85523438 -2.1953125 19.13671875 C-2.14838554 17.42388461 -2.07664605 15.71176176 -2 14 C-3.65 13.67 -5.3 13.34 -7 13 C-7 11.68 -7 10.36 -7 9 C-5.35 9 -3.7 9 -2 9 C-2.04125 7.88625 -2.0825 6.7725 -2.125 5.625 C-2 2 -2 2 0 0 Z " fill="#136491" transform="translate(96,141)"/>
<path d="M0 0 C9.57 0 19.14 0 29 0 C29 0.66 29 1.32 29 2 C28.01 2.495 28.01 2.495 27 3 C26.34444881 5.52733235 26.34444881 5.52733235 26 8 C27.65 8 29.3 8 31 8 C31 7.01 31 6.02 31 5 C31.99 4.67 32.98 4.34 34 4 C34.66 3.34 35.32 2.68 36 2 C36.99 2.66 37.98 3.32 39 4 C38.67 5.32 38.34 6.64 38 8 C36.68 8 35.36 8 34 8 C34 8.99 34 9.98 34 11 C34 11.33 34 11.66 34 12 C23.11 12 12.22 12 1 12 C1 11.01 1 10.02 1 9 C1.99 8.67 2.98 8.34 4 8 C4 7.34 4 6.68 4 6 C4.66 6 5.32 6 6 6 C6 6.66 6 7.32 6 8 C11.94 8 17.88 8 24 8 C24 6.02 24 4.04 24 2 C21.79112243 2.11498267 19.58289213 2.24243505 17.375 2.375 C16.14523438 2.44460937 14.91546875 2.51421875 13.6484375 2.5859375 C10.16346145 2.9814487 7.26950399 3.76261849 4 5 C4 4.34 4 3.68 4 3 C2.68 2.01 1.36 1.02 0 0 Z " fill="#08679F" transform="translate(170,113)"/>
<path d="M0 0 C6.93 0 13.86 0 21 0 C21.33 0.66 21.66 1.32 22 2 C21.24074219 2.03738281 20.48148438 2.07476562 19.69921875 2.11328125 C18.70535156 2.17902344 17.71148437 2.24476562 16.6875 2.3125 C15.70136719 2.37050781 14.71523437 2.42851563 13.69921875 2.48828125 C10.74350106 3.04862715 9.74370302 3.58976204 8 6 C8 6.66 8 7.32 8 8 C9.17755859 7.98259766 9.17755859 7.98259766 10.37890625 7.96484375 C22.24496608 7.86292667 22.24496608 7.86292667 27 9 C27.66 9.99 28.32 10.98 29 12 C24.39186151 12.04957858 19.78387963 12.08580385 15.17553711 12.10986328 C13.60910333 12.11989726 12.04268817 12.13352754 10.47631836 12.15087891 C8.21984247 12.17524225 5.96361506 12.18650916 3.70703125 12.1953125 C3.01100296 12.20563507 2.31497467 12.21595764 1.59785461 12.22659302 C-2.38584491 12.22750439 -5.41290109 11.7555827 -9 10 C-8.01 7.69 -7.02 5.38 -6 3 C-5.34 3 -4.68 3 -4 3 C-3.67 4.32 -3.34 5.64 -3 7 C-1.35 7.33 0.3 7.66 2 8 C2 6.02 2 4.04 2 2 C1.34 2 0.68 2 0 2 C0 1.34 0 0.68 0 0 Z " fill="#07669E" transform="translate(140,113)"/>
<path d="M0 0 C2.31 0.66 4.62 1.32 7 2 C7.0246519 6.82380802 7.04283693 11.64757967 7.05493164 16.47143555 C7.05997174 18.11369464 7.06680378 19.75594923 7.07543945 21.39819336 C7.08751926 23.75375479 7.09323139 26.10925709 7.09765625 28.46484375 C7.10281754 29.20339096 7.10797882 29.94193817 7.11329651 30.7028656 C7.1134925 32.46898088 7.06194719 34.23497146 7 36 C6 37 6 37 3.5 37.125 C1 37 1 37 0 36 C-0.08855161 33.3337397 -0.11524673 30.69352886 -0.09765625 28.02734375 C-0.0962413 27.22970108 -0.09482635 26.43205841 -0.09336853 25.61024475 C-0.08775316 23.05262565 -0.07519812 20.49509282 -0.0625 17.9375 C-0.05748698 16.20768355 -0.05292373 14.47786574 -0.04882812 12.74804688 C-0.03777875 8.49866447 -0.02050386 4.24934688 0 0 Z " fill="#0B669B" transform="translate(221,137)"/>
<path d="M0 0 C0.96955124 0.00565979 1.93910248 0.01131958 2.93803406 0.01715088 C6.02560421 0.03948794 9.11200114 0.08968002 12.19921875 0.140625 C14.29620716 0.16069342 16.39321382 0.17894359 18.49023438 0.1953125 C23.62284582 0.23934413 28.75458357 0.30835389 33.88671875 0.390625 C33.88671875 0.720625 33.88671875 1.050625 33.88671875 1.390625 C19.36671875 1.720625 4.84671875 2.050625 -10.11328125 2.390625 C-9.12328125 3.875625 -9.12328125 3.875625 -8.11328125 5.390625 C-5.50366025 5.77473775 -3.10747385 5.99355697 -0.48828125 6.078125 C0.218125 6.11228516 0.92453125 6.14644531 1.65234375 6.18164062 C3.39657563 6.26413808 5.1416227 6.32905835 6.88671875 6.390625 C6.88671875 6.720625 6.88671875 7.050625 6.88671875 7.390625 C5.8503125 7.41640625 4.81390625 7.4421875 3.74609375 7.46875 C2.37626074 7.52504451 1.0064707 7.58239155 -0.36328125 7.640625 C-1.04519531 7.65480469 -1.72710937 7.66898438 -2.4296875 7.68359375 C-5.95460648 7.85470632 -7.76839323 8.09141751 -10.47265625 10.4375 C-11.0140625 11.08203125 -11.55546875 11.7265625 -12.11328125 12.390625 C-12.77328125 12.390625 -13.43328125 12.390625 -14.11328125 12.390625 C-13.45328125 10.740625 -12.79328125 9.090625 -12.11328125 7.390625 C-13.10328125 7.390625 -14.09328125 7.390625 -15.11328125 7.390625 C-15.44328125 9.040625 -15.77328125 10.690625 -16.11328125 12.390625 C-17.76328125 12.390625 -19.41328125 12.390625 -21.11328125 12.390625 C-20.45328125 11.070625 -19.79328125 9.750625 -19.11328125 8.390625 C-18.45328125 8.390625 -17.79328125 8.390625 -17.11328125 8.390625 C-16.88640625 7.813125 -16.65953125 7.235625 -16.42578125 6.640625 C-12.39050899 -0.27698458 -7.25186117 -0.1598434 0 0 Z " fill="#1B618C" transform="translate(171.11328125,52.609375)"/>
<path d="M0 0 C0.99 0 1.98 0 3 0 C2.99476318 0.95366455 2.98952637 1.9073291 2.98413086 2.88989258 C2.96602735 6.42894553 2.95454839 9.96799438 2.94506836 13.50708008 C2.9400404 15.0386626 2.93321716 16.57024033 2.92456055 18.10180664 C2.91242771 20.30356022 2.90675633 22.50525033 2.90234375 24.70703125 C2.89718246 25.39150833 2.89202118 26.07598541 2.88670349 26.78120422 C2.8863464 29.80906242 3.03383381 32.10150142 4 35 C3.34 35 2.68 35 2 35 C2 35.66 2 36.32 2 37 C1.01 36.67 0.02 36.34 -1 36 C-1.02476851 31.80078534 -1.04289246 27.60160971 -1.05493164 23.40234375 C-1.05995206 21.97460184 -1.06676972 20.54686504 -1.07543945 19.11914062 C-1.08760553 17.06378921 -1.09325128 15.00850593 -1.09765625 12.953125 C-1.10289307 11.71723633 -1.10812988 10.48134766 -1.11352539 9.20800781 C-1.0200823 6.56748694 -0.73261231 4.50746795 0 2 C0 1.34 0 0.68 0 0 Z " fill="#06639A" transform="translate(193,72)"/>
<path d="M0 0 C0 3 0 3 -2 6 C-2.07905064 8.33199388 -2.08798769 10.66832622 -2 13 C0.34886432 11.05925114 0.34886432 11.05925114 0.4375 7.5625 C1 4 1 4 2.125 2.0625 C5.03094231 0.41579935 7.73821805 0.81537083 11 1 C11.33 1.99 11.66 2.98 12 4 C10.88625 3.95875 9.7725 3.9175 8.625 3.875 C4.95633975 3.58878141 4.95633975 3.58878141 3 6 C2.75712511 8.44012949 2.75712511 8.44012949 2.875 11.125 C2.89304688 12.03507813 2.91109375 12.94515625 2.9296875 13.8828125 C2.95289063 14.58148438 2.97609375 15.28015625 3 16 C4.258125 16.04125 5.51625 16.0825 6.8125 16.125 C7.52019531 16.14820313 8.22789062 16.17140625 8.95703125 16.1953125 C11.31359719 16.13254462 11.31359719 16.13254462 14 14 C13.5 15.9375 13.5 15.9375 12 18 C9.30341548 18.68790422 6.7982981 18.81946464 4 19 C4 19.66 4 20.32 4 21 C6.97 21 9.94 21 13 21 C13 21.33 13 21.66 13 22 C3.31877615 22.86097841 3.31877615 22.86097841 -0.5625 19.625 C-4.34165737 15.55513821 -4.32419018 12.88013706 -4.30078125 7.48828125 C-3.88873743 4.07955508 -2.46782052 2.31358174 0 0 Z " fill="#17628E" transform="translate(236,152)"/>
<path d="M0 0 C2.38671875 0.6171875 2.38671875 0.6171875 5 2 C6.14453125 4.8203125 6.14453125 4.8203125 6.8125 8.125 C7.04582031 9.22070312 7.27914063 10.31640625 7.51953125 11.4453125 C7.67808594 12.28835937 7.83664062 13.13140625 8 14 C7.01 14.33 6.02 14.66 5 15 C5.309375 15.763125 5.61875 16.52625 5.9375 17.3125 C6.67893593 19.18789677 7.36228217 21.08684652 8 23 C8.99 23 9.98 23 11 23 C11.33 22.34 11.66 21.68 12 21 C11.67 22.32 11.34 23.64 11 25 C9.35 25 7.7 25 6 25 C3.18056846 17.38153605 0.5324241 9.71850538 -2 2 C-1.34 1.34 -0.68 0.68 0 0 Z " fill="#16638D" transform="translate(259,149)"/>
<path d="M0 0 C0 3 0 3 -1 4.875 C-2.18695221 7.39727345 -2.15304535 9.24518373 -2 12 C-1.34 12 -0.68 12 0 12 C0.33 10.35 0.66 8.7 1 7 C1.33 7 1.66 7 2 7 C2.12375 8.11375 2.2475 9.2275 2.375 10.375 C2.6465813 14.03103677 2.6465813 14.03103677 5 16 C6.98821313 16.39764263 8.98944339 16.73775349 11 17 C11 17.33 11 17.66 11 18 C8.69 18.33 6.38 18.66 4 19 C7.35458155 19.76522801 7.35458155 19.76522801 11 20 C12.7087646 18.62485459 12.7087646 18.62485459 14 17 C15.32 17 16.64 17 18 17 C18.33 16.34 18.66 15.68 19 15 C18.8125 16.8125 18.8125 16.8125 18 19 C14.82595109 21.38053668 11.9628602 22.71693856 8 23 C3.76625638 22.25723796 1.60987513 21.64197382 -1.375 18.5 C-4.09293648 14.31855926 -4.55916861 10.94722061 -4 6 C-2.84367254 3.63706998 -1.85016245 1.85016245 0 0 Z " fill="#18638D" transform="translate(111,152)"/>
<path d="M0 0 C0.99 0 1.98 0 3 0 C3.33 6.6 3.66 13.2 4 20 C5.98 20.99 7.96 21.98 10 23 C10 23.66 10 24.32 10 25 C7.69 25 5.38 25 3 25 C2.67 26.98 2.34 28.96 2 31 C1.34 31 0.68 31 0 31 C0 20.77 0 10.54 0 0 Z " fill="#08659A" transform="translate(163,140)"/>
<path d="M0 0 C1.56061724 0.04234229 3.12108644 0.09036674 4.68139648 0.14282227 C5.5012352 0.16643326 6.32107391 0.19004425 7.16575623 0.21437073 C9.79483562 0.29119463 12.42363418 0.3751377 15.05249023 0.45922852 C16.8304711 0.51243049 18.60846583 0.56517099 20.38647461 0.61743164 C24.75449236 0.74683494 29.12227106 0.88262516 33.48999023 1.02172852 C33.48999023 1.35172852 33.48999023 1.68172852 33.48999023 2.02172852 C21.60999023 2.02172852 9.72999023 2.02172852 -2.51000977 2.02172852 C-2.51000977 13.90172852 -2.51000977 25.78172852 -2.51000977 38.02172852 C-2.84000977 38.02172852 -3.17000977 38.02172852 -3.51000977 38.02172852 C-4.37984004 33.52530199 -4.63872819 29.26657761 -4.64282227 24.68969727 C-4.64377899 24.01248123 -4.64473572 23.3352652 -4.64572144 22.63752747 C-4.64639766 21.21814887 -4.64458258 19.79876707 -4.64038086 18.37939453 C-4.6349826 16.19825424 -4.64036596 14.01731596 -4.64672852 11.83618164 C-4.64606845 10.45401973 -4.64478878 9.07185794 -4.64282227 7.68969727 C-4.64169434 6.43439209 -4.64056641 5.17908691 -4.6394043 3.88574219 C-4.44946286 -0.31841445 -4.32301008 0.02676135 0 0 Z " fill="#21668E" transform="translate(157.510009765625,67.978271484375)"/>
<path d="M0 0 C2.31 0.66 4.62 1.32 7 2 C7.0246519 6.82380802 7.04283693 11.64757967 7.05493164 16.47143555 C7.05997174 18.11369464 7.06680378 19.75594923 7.07543945 21.39819336 C7.08751926 23.75375479 7.09323139 26.10925709 7.09765625 28.46484375 C7.10281754 29.20339096 7.10797882 29.94193817 7.11329651 30.7028656 C7.1134925 32.46898088 7.06194719 34.23497146 7 36 C6 37 6 37 3.5 37.125 C1 37 1 37 0 36 C-0.08855161 33.3337397 -0.11524673 30.69352886 -0.09765625 28.02734375 C-0.0962413 27.22970108 -0.09482635 26.43205841 -0.09336853 25.61024475 C-0.08775316 23.05262565 -0.07519812 20.49509282 -0.0625 17.9375 C-0.05748698 16.20768355 -0.05292373 14.47786574 -0.04882812 12.74804688 C-0.03777875 8.49866447 -0.02050386 4.24934688 0 0 Z M1 3 C1 13.56 1 24.12 1 35 C2.32 35.33 3.64 35.66 5 36 C5 25.44 5 14.88 5 4 C3.68 3.67 2.36 3.34 1 3 Z " fill="#235F81" transform="translate(221,137)"/>
<path d="M0 0 C0.99 0.99 1.98 1.98 3 3 C-0.57729872 7.66132863 -4.10867301 10.73911534 -9 14 C-10.98 11.69 -12.96 9.38 -15 7 C-13.68 6.34 -12.36 5.68 -11 5 C-10.01 5.66 -9.02 6.32 -8 7 C-4.04 3.535 -4.04 3.535 0 0 Z " fill="#106294" transform="translate(180,81)"/>
<path d="M0 0 C1.98 0.495 1.98 0.495 4 1 C4 5.95 4 10.9 4 16 C2.35 16.33 0.7 16.66 -1 17 C-1.02684679 14.35409986 -1.04676357 11.70846904 -1.0625 9.0625 C-1.07087891 8.30775391 -1.07925781 7.55300781 -1.08789062 6.77539062 C-1.09652441 4.85005687 -1.05224333 2.92464419 -1 1 C-0.67 0.67 -0.34 0.34 0 0 Z " fill="#0E6A9C" transform="translate(95,153)"/>
<path d="M0 0 C-0.33 1.32 -0.66 2.64 -1 4 C-4.63 4 -8.26 4 -12 4 C-12.33 2.68 -12.66 1.36 -13 0 C-8.57665867 -4.42334133 -4.98325414 -2.89724078 0 0 Z " fill="#116294" transform="translate(216,156)"/>
<path d="M0 0 C0 3.38877956 -0.93396795 5.80190384 -2 9 C-2 9.99 -2 10.98 -2 12 C-0.68 12 0.64 12 2 12 C2.66 11.34 3.32 10.68 4 10 C6.475 10.99 6.475 10.99 9 12 C8.01 12.66 7.02 13.32 6 14 C8.1385485 16.1385485 9.13275314 16.42655063 12 17 C12 17.66 12 18.32 12 19 C10.24719267 18.57388649 8.49782565 18.13360733 6.75 17.6875 C5.77546875 17.44386719 4.8009375 17.20023438 3.796875 16.94921875 C0.94229994 15.98041744 -0.83192288 15.083542 -3 13 C-4.06312312 10.35326641 -4.25915297 7.83414099 -4 5 C-2.0625 2 -2.0625 2 0 0 Z " fill="#1E658D" transform="translate(67,142)"/>
<path d="M0 0 C1.28132812 0.00902344 2.56265625 0.01804687 3.8828125 0.02734375 C5.36394531 0.04474609 5.36394531 0.04474609 6.875 0.0625 C6.875 2.0425 6.875 4.0225 6.875 6.0625 C0.935 6.0625 -5.005 6.0625 -11.125 6.0625 C-11.125 5.0725 -11.125 4.0825 -11.125 3.0625 C-10.465 3.0625 -9.805 3.0625 -9.125 3.0625 C-9.125 2.4025 -9.125 1.7425 -9.125 1.0625 C-6.12186252 -0.43906874 -3.33432478 -0.03031204 0 0 Z M-6.125 1.0625 C-7.115 2.5475 -7.115 2.5475 -8.125 4.0625 C-3.505 4.0625 1.115 4.0625 5.875 4.0625 C5.875 3.0725 5.875 2.0825 5.875 1.0625 C3.91733719 0.98167906 1.95873272 0.92339222 0 0.875 C-1.09054688 0.84019531 -2.18109375 0.80539063 -3.3046875 0.76953125 C-4.70074219 0.91455078 -4.70074219 0.91455078 -6.125 1.0625 Z " fill="#1C658F" transform="translate(187.125,114.9375)"/>
<path d="M0 0 C0.66 0 1.32 0 2 0 C3.16161779 2.86578759 2.9946154 4.01630163 2.00390625 7.015625 C1.29041016 8.61664063 1.29041016 8.61664063 0.5625 10.25 C0.08941406 11.32765625 -0.38367188 12.4053125 -0.87109375 13.515625 C-1.24363281 14.33546875 -1.61617188 15.1553125 -2 16 C-2.99 15.67 -3.98 15.34 -5 15 C-5.33 13.02 -5.66 11.04 -6 9 C-4.68 9 -3.36 9 -2 9 C-2.04125 7.88625 -2.0825 6.7725 -2.125 5.625 C-2 2 -2 2 0 0 Z " fill="#0A689C" transform="translate(287,156)"/>
<path d="M0 0 C2.31 0 4.62 0 7 0 C7.33 0.99 7.66 1.98 8 3 C9.65 3 11.3 3 13 3 C13.33 4.65 13.66 6.3 14 8 C12.02 8 10.04 8 8 8 C7.34 6.35 6.68 4.7 6 3 C4.35 3 2.7 3 1 3 C0.67 2.01 0.34 1.02 0 0 Z " fill="#136492" transform="translate(143,151)"/>
<path d="M0 0 C3.96 0 7.92 0 12 0 C12 1.98 12 3.96 12 6 C10.68 6 9.36 6 8 6 C8 5.34 8 4.68 8 4 C3.05 4 -1.9 4 -7 4 C-3 2 -3 2 0 2 C0 1.34 0 0.68 0 0 Z " fill="#0A6CA3" transform="translate(170,55)"/>
<path d="M0 0 C-0.33 1.65 -0.66 3.3 -1 5 C-2.65 5.33 -4.3 5.66 -6 6 C-6.33 7.98 -6.66 9.96 -7 12 C-7.99 11.67 -8.98 11.34 -10 11 C-8.49624808 4.48374167 -7.29999703 0 0 0 Z " fill="#08679C" transform="translate(146,103)"/>
<path d="M0 0 C2 2 2 2 2 5 C1.34 5 0.68 5 0 5 C0 7.64 0 10.28 0 13 C-1.32 13 -2.64 13 -4 13 C-4.29543354 7.97762985 -4.00679573 5.0892422 -1 1 C-0.67 0.67 -0.34 0.34 0 0 Z " fill="#09699F" transform="translate(139,153)"/>
<path d="M0 0 C0.98484375 0.02707031 1.9696875 0.05414063 2.984375 0.08203125 C3.73203125 0.11683594 4.4796875 0.15164062 5.25 0.1875 C5.25 0.5175 5.25 0.8475 5.25 1.1875 C4.53972656 1.23648438 3.82945312 1.28546875 3.09765625 1.3359375 C1.71900391 1.44808594 1.71900391 1.44808594 0.3125 1.5625 C-0.60402344 1.63210937 -1.52054688 1.70171875 -2.46484375 1.7734375 C-3.21894531 1.91007812 -3.97304687 2.04671875 -4.75 2.1875 C-5.08 2.8475 -5.41 3.5075 -5.75 4.1875 C-2.12 4.1875 1.51 4.1875 5.25 4.1875 C5.25 4.8475 5.25 5.5075 5.25 6.1875 C0.63 6.1875 -3.99 6.1875 -8.75 6.1875 C-9.08 5.1975 -9.41 4.2075 -9.75 3.1875 C-6.47698081 0.21840402 -4.36934238 -0.15604794 0 0 Z " fill="#1E678E" transform="translate(156.75,114.8125)"/>
<path d="M0 0 C0.99 0.33 1.98 0.66 3 1 C2.67 1.99 2.34 2.98 2 4 C1.34 4 0.68 4 0 4 C0.0825 5.093125 0.165 6.18625 0.25 7.3125 C0 11 0 11 -2 12.9375 C-2.66 13.288125 -3.32 13.63875 -4 14 C-4.43177893 7.73920552 -3.92739438 4.90924297 0 0 Z " fill="#0866A1" transform="translate(237,152)"/>
<path d="M0 0 C0.99 0 1.98 0 3 0 C3.33 3.3 3.66 6.6 4 10 C1.0625 9.1875 1.0625 9.1875 -2 8 C-3 5 -3 5 -1.75 2.3125 C-1.1725 1.549375 -0.595 0.78625 0 0 Z " fill="#0A679E" transform="translate(275,151)"/>
<path d="M0 0 C1.98 0.99 1.98 0.99 4 2 C3.979375 3.093125 3.95875 4.18625 3.9375 5.3125 C3.81455548 8.94384191 3.81455548 8.94384191 5 12 C4.34 12 3.68 12 3 12 C3 12.66 3 13.32 3 14 C2.01 13.67 1.02 13.34 0 13 C0 8.71 0 4.42 0 0 Z " fill="#11639B" transform="translate(192,95)"/>
<path d="M0 0 C1.65 0.33 3.3 0.66 5 1 C4.360625 1.391875 3.72125 1.78375 3.0625 2.1875 C0.83038752 3.85421486 0.83038752 3.85421486 0.125 6.4375 C-0.01411453 9.28934794 0.49696783 10.61283126 2 13 C1.01 14.485 1.01 14.485 0 16 C-1.32 15.34 -2.64 14.68 -4 14 C-3.67 11.36 -3.34 8.72 -3 6 C-2.34 6 -1.68 6 -1 6 C-0.67 4.02 -0.34 2.04 0 0 Z " fill="#166186" transform="translate(273,149)"/>
<path d="M0 0 C0.66 0.33 1.32 0.66 2 1 C2 1.99 2 2.98 2 4 C1.21625 4.28875 0.4325 4.5775 -0.375 4.875 C-3.09671632 5.84912254 -3.09671632 5.84912254 -5 8 C-7.1640625 7.9765625 -7.1640625 7.9765625 -9.625 7.625 C-10.44226563 7.51414063 -11.25953125 7.40328125 -12.1015625 7.2890625 C-12.72804688 7.19367188 -13.35453125 7.09828125 -14 7 C-12 5 -12 5 -8.6875 4.625 C-4.62683185 3.93675116 -2.95692469 2.77771713 0 0 Z " fill="#06639C" transform="translate(127,165)"/>
<path d="M0 0 C7.30434783 -0.36521739 7.30434783 -0.36521739 10.5 1.3125 C12 3 12 3 12 6 C12.66 6.33 13.32 6.66 14 7 C13.01 7.495 13.01 7.495 12 8 C11.34 7.67 10.68 7.34 10 7 C10 6.34 10 5.68 10 5 C9.01 4.67 8.02 4.34 7 4 C7 3.34 7 2.68 7 2 C4.69 2 2.38 2 0 2 C0 1.34 0 0.68 0 0 Z " fill="#07659E" transform="translate(240,151)"/>
<path d="M0 0 C2.125 0.375 2.125 0.375 4 1 C4 2.98 4 4.96 4 7 C4.66 7.33 5.32 7.66 6 8 C5.01 8.33 4.02 8.66 3 9 C2.34 8.67 1.68 8.34 1 8 C1 7.01 1 6.02 1 5 C0.34 5 -0.32 5 -1 5 C-1.33 6.32 -1.66 7.64 -2 9 C-2.125 5.625 -2.125 5.625 -2 2 C-1.34 1.34 -0.68 0.68 0 0 Z " fill="#135180" transform="translate(96,141)"/>
<path d="M0 0 C0.33 0 0.66 0 1 0 C1 2.31 1 4.62 1 7 C1.66 7 2.32 7 3 7 C2.67 8.32 2.34 9.64 2 11 C0.68 10.67 -0.64 10.34 -2 10 C-3.05236973 6.65155086 -3.20005388 5.40920111 -1.625 2.1875 C-1.08875 1.465625 -0.5525 0.74375 0 0 Z " fill="#09649B" transform="translate(67,144)"/>
<path d="M0 0 C2.97 0 5.94 0 9 0 C10.09813941 4.39255766 10.29048588 7.49746886 10 12 C9.01 12.66 8.02 13.32 7 14 C7.2475 12.7625 7.495 11.525 7.75 10.25 C8.1607922 6.98680563 8.22927084 6.3396605 6.3125 3.5 C3.90008991 1.63720593 3.90008991 1.63720593 0 2 C0 1.34 0 0.68 0 0 Z " fill="#1A658B" transform="translate(117,154)"/>
<path d="M0 0 C1 2 1 2 1 6 C0.01 6.495 0.01 6.495 -1 7 C-1.72159424 8.64363134 -2.39351421 10.31050386 -3 12 C-3.66 11.67 -4.32 11.34 -5 11 C-5.44041451 5.62694301 -5.44041451 5.62694301 -5 3 C-2.5 1 -2.5 1 0 0 Z " fill="#125D89" transform="translate(135,110)"/>
<path d="M0 0 C0 0.99 0 1.98 0 3 C-1 4 -1 4 -3.06640625 4.09765625 C-3.89011719 4.08605469 -4.71382812 4.07445312 -5.5625 4.0625 C-6.38878906 4.05347656 -7.21507812 4.04445312 -8.06640625 4.03515625 C-8.70449219 4.02355469 -9.34257812 4.01195312 -10 4 C-10 3.34 -10 2.68 -10 2 C-6.7 1.34 -3.4 0.68 0 0 Z " fill="#0B699E" transform="translate(250,169)"/>
<path d="M0 0 C0.99 0.33 1.98 0.66 3 1 C0.75 3.5625 0.75 3.5625 -2 6 C-4.3125 5.8125 -4.3125 5.8125 -6 5 C-2.25 1.125 -2.25 1.125 0 0 Z " fill="#1A638F" transform="translate(179,60)"/>
<path d="M0 0 C-0.66 0.66 -1.32 1.32 -2 2 C-2.66 1.67 -3.32 1.34 -4 1 C-2.8141763 4.37503669 -1.72426311 6.64722731 1 9 C-1.375 8.3125 -1.375 8.3125 -4 7 C-5.1875 4.4375 -5.1875 4.4375 -6 2 C-6.66 1.67 -7.32 1.34 -8 1 C-3.375 -1.125 -3.375 -1.125 0 0 Z " fill="#206287" transform="translate(69,164)"/>
<path d="M0 0 C0.66 0.66 1.32 1.32 2 2 C2.66 2.33 3.32 2.66 4 3 C3.360625 3.268125 2.72125 3.53625 2.0625 3.8125 C-0.33131686 4.88667752 -0.33131686 4.88667752 -1 8 C-1.33 7.34 -1.66 6.68 -2 6 C-2.99 5.67 -3.98 5.34 -5 5 C-3.35 3.35 -1.7 1.7 0 0 Z " fill="#25678E" transform="translate(209,104)"/>
<path d="M0 0 C2.31 0.66 4.62 1.32 7 2 C7 3.32 7 4.64 7 6 C6.34 6 5.68 6 5 6 C4.67 5.34 4.34 4.68 4 4 C3.01 3.67 2.02 3.34 1 3 C1 4.65 1 6.3 1 8 C0.67 8 0.34 8 0 8 C0 5.36 0 2.72 0 0 Z " fill="#205574" transform="translate(221,137)"/>
<path d="M0 0 C3.96 0.33 7.92 0.66 12 1 C12 1.66 12 2.32 12 3 C11.07767578 2.93039063 11.07767578 2.93039063 10.13671875 2.859375 C7.70254825 2.75067201 5.42063598 2.70815027 3 3 C0.87644433 4.82271927 0.87644433 4.82271927 0 7 C0 4.69 0 2.38 0 0 Z " fill="#18658F" transform="translate(68,144)"/>
<path d="M0 0 C2.64 0 5.28 0 8 0 C8 1.32 8 2.64 8 4 C6.68 4.33 5.36 4.66 4 5 C4 4.34 4 3.68 4 3 C2.0399719 1.36323743 2.0399719 1.36323743 0 0 Z " fill="#0D6AA4" transform="translate(170,113)"/>
<path d="M0 0 C0.99 0 1.98 0 3 0 C3 3.3 3 6.6 3 10 C2.01 9.34 1.02 8.68 0 8 C-0.40843923 5.28796348 -0.13336867 2.7562858 0 0 Z " fill="#0153AA" transform="translate(193,72)"/>
<path d="M0 0 C0.66 0 1.32 0 2 0 C5 3.46153846 5 3.46153846 5 6 C5.99 6 6.98 6 8 6 C8.33 5.01 8.66 4.02 9 3 C9.66 4.32 10.32 5.64 11 7 C8.69 7 6.38 7 4 7 C2.02 3.535 2.02 3.535 0 0 Z " fill="#226085" transform="translate(171,167)"/>
<path d="M0 0 C0.66 0 1.32 0 2 0 C2 0.99 2 1.98 2 3 C1.34 3 0.68 3 0 3 C-0.33 3.99 -0.66 4.98 -1 6 C-2.65 6 -4.3 6 -6 6 C-6 5.34 -6 4.68 -6 4 C-4.35 3.67 -2.7 3.34 -1 3 C-0.67 2.01 -0.34 1.02 0 0 Z " fill="#086799" transform="translate(152,167)"/>
<path d="M0 0 C0 0.66 0 1.32 0 2 C-0.66 2 -1.32 2 -2 2 C-2 2.99 -2 3.98 -2 5 C-4.86724686 4.42655063 -5.8614515 4.1385485 -8 2 C-4.91190305 0.23537317 -3.76687864 0 0 0 Z " fill="#0A5BA4" transform="translate(80,154)"/>
<path d="M0 0 C0 1.33333333 0 2.66666667 0 4 C-1.98 4 -3.96 4 -6 4 C-6 2.68 -6 1.36 -6 0 C-3 -1 -3 -1 0 0 Z " fill="#0D6DA3" transform="translate(148,116)"/>
<path d="M0 0 C0.99 0.33 1.98 0.66 3 1 C3 2.32 3 3.64 3 5 C1.02 5.99 1.02 5.99 -1 7 C-0.67 4.69 -0.34 2.38 0 0 Z " fill="#08669B" transform="translate(84,161)"/>
<path d="M0 0 C-1.485 2.475 -1.485 2.475 -3 5 C-3.66 4.67 -4.32 4.34 -5 4 C-4.34 3.34 -3.68 2.68 -3 2 C-5.31 1.67 -7.62 1.34 -10 1 C-10 0.67 -10 0.34 -10 0 C-6.33694766 -0.74926071 -3.57644848 -1.2380014 0 0 Z " fill="#1D6B97" transform="translate(217,97)"/>
<path d="M0 0 C0.99 0.99 1.98 1.98 3 3 C1.68 3.99 0.36 4.98 -1 6 C-1.99 5.34 -2.98 4.68 -4 4 C-2.68 2.68 -1.36 1.36 0 0 Z " fill="#1F6587" transform="translate(180,81)"/>
<path d="M0 0 C2.64 0.66 5.28 1.32 8 2 C5.64561267 3.42944945 4.51967567 4.08661261 1.75 3.625 C1.1725 3.41875 0.595 3.2125 0 3 C0 2.01 0 1.02 0 0 Z " fill="#0660A1" transform="translate(68,141)"/>
<path d="M0 0 C1.32 0.66 2.64 1.32 4 2 C3.01 2.495 3.01 2.495 2 3 C1.67 3.99 1.34 4.98 1 6 C0.01 4.68 -0.98 3.36 -2 2 C-1.34 1.34 -0.68 0.68 0 0 Z " fill="#1F6487" transform="translate(167,86)"/>
<path d="M0 0 C0.66 0 1.32 0 2 0 C2.33 1.65 2.66 3.3 3 5 C2.01 5.66 1.02 6.32 0 7 C-0.38133299 5.0085944 -0.71325582 3.00720923 -1 1 C-0.67 0.67 -0.34 0.34 0 0 Z " fill="#1D6E9F" transform="translate(217,99)"/>
<path d="M0 0 C4 1 4 1 4 1 Z " fill="#2A2A2A" transform="translate(117,148)"/>
<path d="" fill="#193333" transform="translate(0,0)"/>
<path d="" fill="#004040" transform="translate(0,0)"/>
<path d="M0 0 C2 1 2 1 2 1 Z " fill="#000000" transform="translate(126,150)"/>
<path d="M0 0 C2 1 2 1 2 1 Z " fill="#004040" transform="translate(83,141)"/>
<path d="M0 0 C2 1 2 1 2 1 Z " fill="#004040" transform="translate(69,139)"/>
<path d="" fill="#404040" transform="translate(0,0)"/>
<path d="" fill="#008080" transform="translate(0,0)"/>
<path d="" fill="#000000" transform="translate(0,0)"/>
<path d="" fill="#000000" transform="translate(0,0)"/>
<path d="" fill="#000000" transform="translate(0,0)"/>
<path d="" fill="#000000" transform="translate(0,0)"/>
<path d="" fill="#404040" transform="translate(0,0)"/>
<path d="" fill="#555555" transform="translate(0,0)"/>
<path d="" fill="#2A5555" transform="translate(0,0)"/>
<path d="" fill="#000000" transform="translate(0,0)"/>
<path d="" fill="#2A5555" transform="translate(0,0)"/>
<path d="" fill="#395571" transform="translate(0,0)"/>
<path d="" fill="#000000" transform="translate(0,0)"/>
<path d="" fill="#406060" transform="translate(0,0)"/>
<path d="" fill="#008080" transform="translate(0,0)"/>
<path d="" fill="#404080" transform="translate(0,0)"/>
<path d="" fill="#336666" transform="translate(0,0)"/>
<path d="" fill="#000000" transform="translate(0,0)"/>
<path d="" fill="#000000" transform="translate(0,0)"/>
<path d="" fill="#008080" transform="translate(0,0)"/>
<path d="" fill="#000000" transform="translate(0,0)"/>
<path d="" fill="#000000" transform="translate(0,0)"/>
<path d="" fill="#808080" transform="translate(0,0)"/>
<path d="" fill="#000000" transform="translate(0,0)"/>
<path d="" fill="#404080" transform="translate(0,0)"/>
<path d="" fill="#000000" transform="translate(0,0)"/>
<path d="" fill="#808080" transform="translate(0,0)"/>
<path d="" fill="#808080" transform="translate(0,0)"/>
<path d="" fill="#555555" transform="translate(0,0)"/>
<path d="" fill="#000000" transform="translate(0,0)"/>
<path d="" fill="#555555" transform="translate(0,0)"/>
<path d="" fill="#404080" transform="translate(0,0)"/>
<path d="" fill="#555555" transform="translate(0,0)"/>
<path d="" fill="#000000" transform="translate(0,0)"/>
<path d="" fill="#008080" transform="translate(0,0)"/>
<path d="" fill="#000000" transform="translate(0,0)"/>
<path d="" fill="#000000" transform="translate(0,0)"/>
<path d="" fill="#336666" transform="translate(0,0)"/>
<path d="" fill="#808080" transform="translate(0,0)"/>
<path d="" fill="#000000" transform="translate(0,0)"/>
<path d="" fill="#000000" transform="translate(0,0)"/>
<path d="" fill="#000000" transform="translate(0,0)"/>
<path d="" fill="#008080" transform="translate(0,0)"/>
<path d="" fill="#000000" transform="translate(0,0)"/>
<path d="" fill="#404040" transform="translate(0,0)"/>
<path d="" fill="#5D5D5D" transform="translate(0,0)"/>
<path d="" fill="#000000" transform="translate(0,0)"/>
<path d="" fill="#008080" transform="translate(0,0)"/>
<path d="" fill="#336666" transform="translate(0,0)"/>
<path d="" fill="#000000" transform="translate(0,0)"/>
<path d="" fill="#408080" transform="translate(0,0)"/>
<path d="" fill="#555555" transform="translate(0,0)"/>
<path d="" fill="#000000" transform="translate(0,0)"/>
<path d="" fill="#555555" transform="translate(0,0)"/>
</svg>
